<svg width="60" height="21" viewBox="0 0 60 21" fill="none" xmlns="http://www.w3.org/2000/svg">
<path d="M2.15344 6.872C2.15344 6.57333 2.26544 6.32267 2.48944 6.12C2.7241 5.90667 3.00677 5.8 3.33744 5.8H10.6174C10.6174 6.504 10.5001 7.016 10.2654 7.336C10.0308 7.656 9.6521 7.816 9.12944 7.816H4.50544V10.264H8.69744C8.69744 10.968 8.5801 11.48 8.34544 11.8C8.11077 12.12 7.7321 12.28 7.20944 12.28H4.50544V15.528C4.50544 16.0933 4.31877 16.504 3.94544 16.76C3.58277 17.016 2.98544 17.144 2.15344 17.144V6.872ZM12.4368 8.248C12.0315 8.248 11.6901 8.13067 11.4128 7.896C11.1461 7.65067 11.0128 7.336 11.0128 6.952C11.0128 6.568 11.1461 6.25867 11.4128 6.024C11.6901 5.77867 12.0315 5.656 12.4368 5.656C12.8421 5.656 13.1781 5.77867 13.4448 6.024C13.7221 6.25867 13.8608 6.568 13.8608 6.952C13.8608 7.336 13.7221 7.65067 13.4448 7.896C13.1781 8.13067 12.8421 8.248 12.4368 8.248ZM11.3328 10.136C11.3328 9.67733 11.5141 9.352 11.8768 9.16C12.2395 8.95733 12.7888 8.856 13.5248 8.856V15.864C13.5248 16.3227 13.3435 16.6533 12.9808 16.856C12.6181 17.048 12.0688 17.144 11.3328 17.144V10.136ZM18.9194 17.144C18.0128 17.144 17.3461 16.8827 16.9194 16.36C16.4928 15.8373 16.2794 15.1653 16.2794 14.344V10.616H14.5834C14.5834 10.072 14.6848 9.66667 14.8874 9.4C15.0901 9.13333 15.3568 9 15.6874 9H16.3114V7.736C16.3114 7.27733 16.4874 6.952 16.8394 6.76C17.1914 6.55733 17.7248 6.456 18.4394 6.456V9H20.5674C20.5674 9.576 20.4608 9.992 20.2474 10.248C20.0341 10.4933 19.6821 10.616 19.1914 10.616H18.4714V14.264C18.4714 14.616 18.5408 14.872 18.6794 15.032C18.8181 15.1813 19.0581 15.256 19.3994 15.256C19.7728 15.256 20.1568 15.1493 20.5514 14.936C20.6688 15.0427 20.7594 15.176 20.8234 15.336C20.8981 15.496 20.9354 15.656 20.9354 15.816C20.9354 16.0293 20.8608 16.2373 20.7114 16.44C20.5621 16.6427 20.3328 16.8133 20.0234 16.952C19.7248 17.08 19.3568 17.144 18.9194 17.144Z" fill="white"/>
<path d="M22.3722 6.872C22.3722 6.57333 22.4842 6.32267 22.7082 6.12C22.9429 5.90667 23.2255 5.8 23.5562 5.8H30.8362C30.8362 6.504 30.7189 7.016 30.4842 7.336C30.2495 7.656 29.8709 7.816 29.3482 7.816H24.7242V10.264H28.9162C28.9162 10.968 28.7989 11.48 28.5642 11.8C28.3295 12.12 27.9509 12.28 27.4282 12.28H24.7242V15.528C24.7242 16.0933 24.5375 16.504 24.1642 16.76C23.8015 17.016 23.2042 17.144 22.3722 17.144V6.872ZM40.7394 10.744C40.0994 10.744 39.5821 10.9093 39.1874 11.24C38.7928 11.5707 38.5954 11.9867 38.5954 12.488V15.864C38.5954 16.3227 38.4141 16.6533 38.0514 16.856C37.6994 17.048 37.1501 17.144 36.4034 17.144V10.52C36.4034 9.98667 36.5794 9.576 36.9314 9.288C37.2834 9 37.8061 8.856 38.4994 8.856V9.8C38.3394 9.97067 38.2061 10.152 38.0994 10.344L38.2114 10.408C38.8834 9.37333 39.7208 8.856 40.7234 8.856C41.2034 8.856 41.5661 8.984 41.8114 9.24C42.0568 9.496 42.1794 9.82133 42.1794 10.216C42.1794 10.5147 42.0994 10.776 41.9394 11C41.6408 10.8293 41.2408 10.744 40.7394 10.744ZM46.2672 17.144C45.5632 17.144 44.9392 17.016 44.3952 16.76C43.8512 16.504 43.4245 16.152 43.1152 15.704C42.8165 15.2453 42.6672 14.728 42.6672 14.152V12.024C42.6672 11.4053 42.8165 10.856 43.1152 10.376C43.4245 9.896 43.8512 9.52267 44.3952 9.256C44.9392 8.98933 45.5579 8.856 46.2512 8.856C46.9019 8.856 47.4779 8.952 47.9792 9.144C48.4805 9.32533 48.8699 9.58133 49.1472 9.912C49.4352 10.2427 49.5792 10.6213 49.5792 11.048C49.5792 11.4 49.4405 11.6827 49.1632 11.896C48.8859 12.1093 48.5179 12.216 48.0592 12.216C47.9205 12.216 47.8192 12.2107 47.7552 12.2C47.7552 11.7733 47.6219 11.4267 47.3552 11.16C47.0885 10.8827 46.7419 10.744 46.3152 10.744C45.8885 10.744 45.5365 10.8773 45.2592 11.144C44.9925 11.4 44.8592 11.7307 44.8592 12.136V13.992C44.8592 14.3653 44.9925 14.6693 45.2592 14.904C45.5365 15.1387 45.8939 15.256 46.3312 15.256C46.7579 15.256 47.1045 15.1227 47.3712 14.856C47.6485 14.5893 47.7872 14.2427 47.7872 13.816C47.8619 13.8053 47.9685 13.8 48.1072 13.8C48.5659 13.8 48.9339 13.9067 49.2112 14.12C49.4885 14.3227 49.6272 14.6 49.6272 14.952C49.6272 15.3787 49.4832 15.7573 49.1952 16.088C48.9179 16.4187 48.5232 16.68 48.0112 16.872C47.4992 17.0533 46.9179 17.144 46.2672 17.144ZM54.6437 17.144C53.9824 17.144 53.369 17.0107 52.8037 16.744C52.249 16.4773 51.8064 16.1147 51.4757 15.656C51.145 15.1973 50.9797 14.6853 50.9797 14.12V12.072C50.9797 11.4747 51.145 10.9307 51.4757 10.44C51.817 9.93867 52.2704 9.54933 52.8357 9.272C53.401 8.99467 54.009 8.856 54.6597 8.856C55.2997 8.856 55.8864 8.98933 56.4197 9.256C56.9637 9.512 57.3904 9.88 57.6997 10.36C58.009 10.8293 58.1637 11.3627 58.1637 11.96V12.824C58.1637 13.08 58.0677 13.2987 57.8757 13.48C57.6837 13.6507 57.4384 13.736 57.1397 13.736H53.1077V13.96C53.1077 14.3867 53.2357 14.7387 53.4917 15.016C53.7584 15.2827 54.1477 15.416 54.6597 15.416C55.161 15.416 55.529 15.3093 55.7637 15.096C55.9984 14.872 56.1157 14.5947 56.1157 14.264C56.329 14.2427 56.489 14.232 56.5957 14.232C57.033 14.232 57.369 14.3227 57.6037 14.504C57.8384 14.6853 57.9557 14.952 57.9557 15.304C57.9557 15.592 57.8117 15.88 57.5237 16.168C57.2357 16.456 56.8357 16.6907 56.3237 16.872C55.8224 17.0533 55.2624 17.144 54.6437 17.144ZM56.1797 12.184V11.96C56.1797 11.5333 56.0357 11.1973 55.7477 10.952C55.4704 10.696 55.1024 10.568 54.6437 10.568C54.185 10.568 53.8117 10.696 53.5237 10.952C53.2464 11.1973 53.1077 11.5333 53.1077 11.96V12.184H56.1797Z" fill="#62E89A"/>
<ellipse cx="54.5" cy="11.5" rx="2.5" ry="1.5" fill="#62E89A"/>
<path d="M35.5343 9.15195C35.4468 8.95662 35.1968 8.9488 35.0921 9.13319C34.6077 9.97546 33.7404 10.5005 32.7497 10.5005H31.4996C29.8432 10.5005 28.4993 11.8444 28.4993 13.5008C28.4993 13.6102 28.5118 13.7149 28.5227 13.8211C29.5197 13.107 30.9589 12.5007 32.9997 12.5007C33.1372 12.5007 33.2497 12.6132 33.2497 12.7507C33.2497 12.8882 33.1372 13.0007 32.9997 13.0007C29.0712 13.0007 27.4054 15.4088 27.0366 16.3136C26.9335 16.5683 27.0554 16.8589 27.3101 16.9636C27.5664 17.0699 27.857 16.9464 27.9633 16.6933C27.9867 16.637 28.2899 15.9448 29.0868 15.2775C29.5931 15.9635 30.5557 16.6183 31.8199 16.4839C34.2733 16.3058 36 14.1055 36 11.4115C36 10.6271 35.8312 9.81451 35.5343 9.15195Z" fill="#62E89A"/>
</svg>
