<svg width="9" height="8" viewBox="0 0 9 8" fill="none" xmlns="http://www.w3.org/2000/svg">
<path d="M8.53433 0.151946C8.44682 -0.0433846 8.1968 -0.0511979 8.0921 0.133195C7.60768 0.975462 6.74041 1.50051 5.74969 1.50051H4.49957C2.84317 1.50051 1.49929 2.84439 1.49929 4.5008C1.49929 4.61018 1.51179 4.71488 1.52273 4.82114C2.5197 4.10701 3.9589 3.5007 5.99972 3.5007C6.13723 3.5007 6.24974 3.61321 6.24974 3.75073C6.24974 3.88824 6.13723 4.00075 5.99972 4.00075C2.07122 4.00075 0.405434 6.40879 0.0366486 7.31356C-0.0664862 7.56828 0.0554004 7.85893 0.310112 7.96363C0.566386 8.06989 0.857039 7.94644 0.963299 7.69329C0.986739 7.63703 1.28989 6.94478 2.08684 6.27753C2.59314 6.96353 3.55573 7.61828 4.81992 7.48389C7.27327 7.30575 9 5.10554 9 2.41154C9 1.62709 8.83123 0.814509 8.53433 0.151946Z" fill="#62E89A"/>
</svg>
